<svg width="476" height="96" viewBox="0 0 476 96" fill="none" xmlns="http://www.w3.org/2000/svg">
<mask id="mask0_3_15" style="mask-type:alpha" maskUnits="userSpaceOnUse" x="0" y="19" width="475" height="67">
<path d="M0 60.576H42.432L23.424 36.96C22.016 35.168 21.216 33.248 21.024 31.2C20.896 29.152 21.248 27.264 22.08 25.536C22.976 23.744 24.256 22.272 25.92 21.12C27.648 19.904 29.664 19.296 31.968 19.296H74.304V30.72H33.024L51.936 54.336C53.344 56.128 54.112 58.048 54.24 60.096C54.432 62.144 54.112 64.064 53.28 65.856C52.448 67.584 51.168 69.056 49.44 70.272C47.776 71.424 45.792 72 43.488 72H0V60.576ZM122.738 72L109.49 58.752H89.4263V72H77.9062V22.56H89.4263V47.424H109.49L122.738 34.176H138.866L119.858 53.088L138.866 72H122.738ZM165.985 85.728L173.953 72H170.785C168.033 72 165.505 71.36 163.201 70.08C160.897 68.736 159.041 66.848 157.633 64.416L139.969 34.176H153.121L167.425 58.752C168.193 59.968 169.313 60.576 170.785 60.576H180.577L196.033 34.176H209.185L179.137 85.728H165.985ZM321.719 60.48V72H277.943C275.319 72 272.855 71.52 270.551 70.56C268.247 69.536 266.231 68.192 264.503 66.528C262.839 64.8 261.495 62.784 260.471 60.48C259.511 58.176 259.031 55.712 259.031 53.088V19.392H270.551V53.088C270.551 55.136 271.255 56.896 272.663 58.368C274.135 59.776 275.895 60.48 277.943 60.48H321.719ZM339.551 29.28H328.031V22.56H339.551V29.28ZM328.031 34.176H339.551V72H328.031V34.176ZM363.912 34.176H389.544C392.104 34.176 394.536 34.688 396.84 35.712C399.144 36.672 401.16 38.016 402.888 39.744C404.616 41.408 405.96 43.392 406.92 45.696C407.944 48 408.456 50.464 408.456 53.088V72H396.84V53.088C396.84 51.04 396.136 49.312 394.728 47.904C393.32 46.432 391.592 45.696 389.544 45.696H363.912C361.864 45.696 360.104 46.432 358.632 47.904C357.224 49.312 356.52 51.04 356.52 53.088V72H345V53.088C345 50.464 345.48 48 346.44 45.696C347.464 43.392 348.808 41.408 350.472 39.744C352.2 38.016 354.216 36.672 356.52 35.712C358.824 34.688 361.288 34.176 363.912 34.176ZM458.738 72L445.49 58.752H425.426V72H413.906V22.56H425.426V47.424H445.49L458.738 34.176H474.866L455.858 53.088L474.866 72H458.738Z" fill="black"/>
</mask>
<g mask="url(#mask0_3_15)">
<circle cx="32" cy="41" r="50" fill="#608AF7"/>
<circle cx="110" cy="41" r="50" fill="#0D3DB9"/>
<circle cx="179" cy="41" r="50" fill="#4C7CF7"/>
<circle cx="288" cy="41" r="50" fill="#14368D"/>
<circle cx="360" cy="41" r="50" fill="#4C7CF7"/>
<circle cx="435" cy="41" r="50" fill="#1249D6"/>
</g>
</svg>
