<svg width="475" height="67" viewBox="0 0 475 67" fill="none" xmlns="http://www.w3.org/2000/svg">
<path d="M0 41.576H42.432L23.424 17.96C22.016 16.168 21.216 14.248 21.024 12.2C20.896 10.152 21.248 8.264 22.08 6.536C22.976 4.744 24.256 3.272 25.92 2.12C27.648 0.903997 29.664 0.295998 31.968 0.295998H74.304V11.72H33.024L51.936 35.336C53.344 37.128 54.112 39.048 54.24 41.096C54.432 43.144 54.112 45.064 53.28 46.856C52.448 48.584 51.168 50.056 49.44 51.272C47.776 52.424 45.792 53 43.488 53H0V41.576ZM122.738 53L109.49 39.752H89.4263V53H77.9062V3.56H89.4263V28.424H109.49L122.738 15.176H138.866L119.858 34.088L138.866 53H122.738ZM165.985 66.728L173.953 53H170.785C168.033 53 165.505 52.36 163.201 51.08C160.897 49.736 159.041 47.848 157.633 45.416L139.969 15.176H153.121L167.425 39.752C168.193 40.968 169.313 41.576 170.785 41.576H180.577L196.033 15.176H209.185L179.137 66.728H165.985Z" fill="black"/>
<path d="M321.719 41.48V53H277.943C275.319 53 272.855 52.52 270.551 51.56C268.247 50.536 266.231 49.192 264.503 47.528C262.839 45.8 261.495 43.784 260.471 41.48C259.511 39.176 259.031 36.712 259.031 34.088V0.391996H270.551V34.088C270.551 36.136 271.255 37.896 272.663 39.368C274.135 40.776 275.895 41.48 277.943 41.48H321.719ZM339.551 10.28H328.031V3.56H339.551V10.28ZM328.031 15.176H339.551V53H328.031V15.176ZM363.912 15.176H389.544C392.104 15.176 394.536 15.688 396.84 16.712C399.144 17.672 401.16 19.016 402.888 20.744C404.616 22.408 405.96 24.392 406.92 26.696C407.944 29 408.456 31.464 408.456 34.088V53H396.84V34.088C396.84 32.04 396.136 30.312 394.728 28.904C393.32 27.432 391.592 26.696 389.544 26.696H363.912C361.864 26.696 360.104 27.432 358.632 28.904C357.224 30.312 356.52 32.04 356.52 34.088V53H345V34.088C345 31.464 345.48 29 346.44 26.696C347.464 24.392 348.808 22.408 350.472 20.744C352.2 19.016 354.216 17.672 356.52 16.712C358.824 15.688 361.288 15.176 363.912 15.176ZM458.738 53L445.49 39.752H425.426V53H413.906V3.56H425.426V28.424H445.49L458.738 15.176H474.866L455.858 34.088L474.866 53H458.738Z" fill="#14368D"/>
</svg>
